<svg width="441.3" height="100.001" viewBox="0 0 441.3 100.001" xmlns="http://www.w3.org/2000/svg"><g id="svgGroup" stroke-linecap="round" fill-rule="evenodd" font-size="9pt" stroke="#000" stroke-width="0" fill="#ffffff" style="stroke:#000;stroke-width:0;fill:#ffffff"><path d="M 0.299 80.015 A 74.331 74.331 0 0 0 0 80.7 Q 2.7 80.7 5.5 76.9 A 28.539 28.539 0 0 0 6.467 75.495 Q 8.087 72.996 9.964 69.165 A 128.531 128.531 0 0 0 11.95 64.9 A 425.926 425.926 0 0 0 12.739 63.116 Q 16.17 55.313 21 43.55 Q 26.4 30.4 34.4 11.8 A 26.97 26.97 0 0 1 34.427 12.088 Q 34.466 12.527 34.497 13.02 A 47.16 47.16 0 0 1 34.55 14.1 Q 34.6 15.4 34.6 17.4 A 152.584 152.584 0 0 1 34.576 20.052 Q 34.551 21.453 34.502 23.006 A 291.388 291.388 0 0 1 34.35 26.95 Q 34.1 32.5 33.8 38.5 A 2213.473 2213.473 0 0 0 33.763 39.249 A 2022.037 2022.037 0 0 0 33.25 50.15 A 309.134 309.134 0 0 0 33.118 53.53 Q 33 57.082 33 59.9 A 74.117 74.117 0 0 0 33.008 60.998 Q 33.082 66.01 33.85 68.9 A 8.197 8.197 0 0 0 33.886 69.032 Q 34.43 70.95 35.667 71.669 A 3.386 3.386 0 0 0 37.4 72.1 Q 37.763 72.1 37.968 72.048 A 0.67 0.67 0 0 0 38.1 72 A 1.572 1.572 0 0 1 38.161 71.972 Q 38.321 71.9 38.641 71.789 A 19.915 19.915 0 0 1 38.9 71.7 Q 40.1 68 42.3 62.4 Q 44.5 56.8 47.35 50.25 Q 50.2 43.7 53.35 37.15 A 254.224 254.224 0 0 1 55.712 32.364 A 213.633 213.633 0 0 1 59.65 24.95 Q 62.8 19.3 65.7 15.6 Q 61.8 30.3 58.75 43.95 A 134.978 134.978 0 0 0 56.665 55.559 A 105.683 105.683 0 0 0 55.7 69.5 A 54.553 54.553 0 0 0 55.701 69.86 Q 55.727 73.709 56.3 76.05 Q 56.9 78.5 58.7 79.6 Q 59.952 80.365 61.977 80.598 A 16.876 16.876 0 0 0 63.9 80.7 Q 63.625 79.532 63.374 78.717 A 13.234 13.234 0 0 0 63.15 78.05 Q 62.8 77.1 62.6 75.9 A 9.994 9.994 0 0 1 62.536 75.448 Q 62.4 74.314 62.4 72.5 A 69.547 69.547 0 0 1 62.461 69.67 Q 62.621 65.749 63.2 60.65 A 247.932 247.932 0 0 1 63.877 55.229 A 303.482 303.482 0 0 1 65.35 45.6 Q 66.7 37.6 68.3 29.85 Q 69.125 25.854 69.95 22.297 A 227.024 227.024 0 0 1 71.5 16 Q 72.312 12.813 73.105 10.231 A 74.951 74.951 0 0 1 74.05 7.35 A 380.023 380.023 0 0 1 74.606 5.782 Q 75.464 3.378 76 2 Q 74.973 1.601 74.077 1.43 A 6.806 6.806 0 0 0 72.8 1.3 A 4.555 4.555 0 0 0 72.409 1.317 A 3.338 3.338 0 0 0 70.2 2.35 A 12.035 12.035 0 0 0 70.108 2.448 Q 69.454 3.15 68.636 4.243 A 44.918 44.918 0 0 0 67.8 5.4 A 240.966 240.966 0 0 0 67.701 5.553 Q 66.734 7.042 65.006 9.75 A 1912.326 1912.326 0 0 0 63.7 11.8 Q 61.95 14.55 59.927 17.925 A 414.408 414.408 0 0 0 57.4 22.2 A 263.661 263.661 0 0 0 55.208 26.033 A 308.936 308.936 0 0 0 50.35 35.05 Q 46.8 41.9 43.85 48.8 A 108.61 108.61 0 0 0 41.518 54.71 A 83.661 83.661 0 0 0 39.3 61.8 Q 39.5 56.2 40 49.4 Q 40.5 42.6 40.95 35.6 A 231.371 231.371 0 0 0 41.224 30.463 A 192.44 192.44 0 0 0 41.4 22.4 Q 41.4 16.002 40.831 11.729 A 32.172 32.172 0 0 0 40.25 8.5 A 26.354 26.354 0 0 0 40.099 7.9 Q 38.956 3.582 36.85 1.85 Q 34.6 0 31.3 0 A 16.78 16.78 0 0 0 28.594 0.223 A 19.883 19.883 0 0 0 24.55 1.35 Q 21.1 2.7 18.25 5.1 A 24.197 24.197 0 0 0 17.887 5.412 A 21.384 21.384 0 0 0 13.6 10.5 A 14.277 14.277 0 0 0 13.476 10.712 A 12.01 12.01 0 0 0 11.8 16.8 Q 11.8 18.4 12.35 20.35 A 10.119 10.119 0 0 0 12.752 21.51 A 8.085 8.085 0 0 0 14.05 23.65 A 3.695 3.695 0 0 0 15.643 24.764 A 4.322 4.322 0 0 0 17.1 25 Q 17 24.3 16.95 23.6 A 16.73 16.73 0 0 1 16.924 23.134 Q 16.9 22.588 16.9 21.9 A 25.16 25.16 0 0 1 16.965 20.102 A 27.664 27.664 0 0 1 18.25 13.6 A 20.93 20.93 0 0 1 18.934 11.767 A 17.145 17.145 0 0 1 22.35 6.55 A 9.059 9.059 0 0 1 25.695 4.321 A 10.128 10.128 0 0 1 29.3 3.7 Q 30.727 3.7 31.485 4.047 A 1.631 1.631 0 0 1 32.05 4.45 A 2.57 2.57 0 0 1 32.567 5.375 A 3.083 3.083 0 0 1 32.7 6.3 A 7.072 7.072 0 0 1 32.672 6.923 A 8.003 8.003 0 0 1 32.35 8.55 Q 32 9.7 31.7 10.4 Q 25.6 24 20.15 36.15 A 5742.891 5742.891 0 0 1 19.431 37.753 Q 16.932 43.32 14.67 48.326 A 3446.037 3446.037 0 0 1 10.35 57.85 A 22326.534 22326.534 0 0 0 9.451 59.825 Q 5.715 68.028 3.3 73.35 A 2470.268 2470.268 0 0 0 2.962 74.096 Q 1.042 78.33 0.299 80.015 Z M 115.8 55.8 L 117.1 56.8 A 23.959 23.959 0 0 1 113.989 63.282 A 22.013 22.013 0 0 1 112.55 65.15 Q 109.5 68.7 105.7 71.25 A 57.235 57.235 0 0 1 100.756 74.231 A 48.068 48.068 0 0 1 98.2 75.5 Q 95.6 81.9 92.55 87.5 A 53.167 53.167 0 0 1 90.022 91.696 Q 88.639 93.756 87.199 95.409 A 28.844 28.844 0 0 1 86.15 96.55 A 14.665 14.665 0 0 1 84.042 98.37 Q 82.728 99.287 81.392 99.688 A 7.237 7.237 0 0 1 79.3 100 A 7.836 7.836 0 0 1 76.61 99.549 A 7.144 7.144 0 0 1 74.9 98.65 A 4.374 4.374 0 0 1 73.042 95.445 A 6.415 6.415 0 0 1 73 94.7 A 10.908 10.908 0 0 1 73.587 91.082 A 9.901 9.901 0 0 1 74.6 89 A 17.201 17.201 0 0 1 77.165 85.9 A 21.548 21.548 0 0 1 78.9 84.4 Q 81.6 82.3 85.1 80.4 A 241.49 241.49 0 0 1 91.455 77.075 A 265.895 265.895 0 0 1 92.4 76.6 Q 93.8 72.9 95.25 68.35 A 122.668 122.668 0 0 0 96.834 62.931 A 157.768 157.768 0 0 0 98 58.3 A 56.902 56.902 0 0 1 94.258 63.692 A 45.128 45.128 0 0 1 91.15 67.25 Q 88.144 70.339 84.832 70.884 A 8.809 8.809 0 0 1 83.4 71 A 8.801 8.801 0 0 1 79.997 70.302 A 10.235 10.235 0 0 1 79.65 70.15 Q 77.8 69.3 76.6 67.5 A 6.79 6.79 0 0 1 75.664 65.306 Q 75.449 64.418 75.409 63.385 A 12.468 12.468 0 0 1 75.4 62.9 A 20.227 20.227 0 0 1 75.569 60.378 Q 75.801 58.539 76.35 56.4 Q 77.3 52.7 78.7 49.2 A 44.768 44.768 0 0 1 79.764 46.744 Q 80.354 45.493 80.96 44.444 A 22.783 22.783 0 0 1 81.6 43.4 Q 83.013 41.234 84.071 41.108 A 1.093 1.093 0 0 1 84.2 41.1 A 1.833 1.833 0 0 1 84.432 41.118 Q 84.854 41.173 85.65 41.4 Q 86.7 41.7 87.65 42.25 Q 88.4 42.684 88.558 43.15 A 0.775 0.775 0 0 1 88.6 43.4 Q 87.7 44.7 86.6 47.1 Q 85.5 49.5 84.45 52.45 Q 83.4 55.4 82.7 58.2 A 28.452 28.452 0 0 0 82.275 60.178 Q 82.107 61.134 82.042 61.973 A 13.222 13.222 0 0 0 82 63 A 6.596 6.596 0 0 0 82.103 64.204 Q 82.287 65.196 82.8 65.9 Q 83.452 66.796 84.899 66.962 A 6.151 6.151 0 0 0 85.6 67 Q 86.964 67 88.56 66.047 A 12.282 12.282 0 0 0 89.85 65.15 Q 92.2 63.3 94.55 60.4 Q 96.9 57.5 98.9 54.2 Q 99.2 53.1 99.45 51.95 Q 99.7 50.8 99.9 49.6 A 7.107 7.107 0 0 1 100.243 48.49 Q 100.461 47.938 100.784 47.33 A 16.7 16.7 0 0 1 101.35 46.35 Q 102.5 44.5 105 44.5 Q 105.5 44.5 106 44.55 Q 106.468 44.597 107.024 44.776 A 7.074 7.074 0 0 1 107.1 44.8 A 9.33 9.33 0 0 1 107.048 45.701 Q 106.917 47.017 106.46 49.278 A 96.934 96.934 0 0 1 106.15 50.75 Q 105.2 55.1 103.45 60.9 A 150.838 150.838 0 0 1 100.177 70.523 A 169.794 169.794 0 0 1 99.3 72.8 A 25.526 25.526 0 0 0 104.524 70.032 A 34.586 34.586 0 0 0 108.5 66.85 A 26.554 26.554 0 0 0 113.025 61.311 A 36.141 36.141 0 0 0 115.8 55.8 Z M 319.4 55.8 L 320.9 56.8 A 27.517 27.517 0 0 1 319.022 60.535 Q 317.836 62.481 316.435 63.899 A 13.759 13.759 0 0 1 314.55 65.5 A 21.215 21.215 0 0 1 312.348 66.866 Q 309.927 68.153 307.944 68.199 A 6.306 6.306 0 0 1 307.8 68.2 A 8.027 8.027 0 0 1 305.61 67.883 A 10.633 10.633 0 0 1 304.05 67.3 A 14.994 14.994 0 0 1 300.453 64.947 A 16.695 16.695 0 0 1 300.4 64.9 Q 300.4 71.2 299.05 77.4 A 66.618 66.618 0 0 1 297.089 84.548 A 54.579 54.579 0 0 1 295.5 88.7 A 41.174 41.174 0 0 1 293.649 92.48 Q 292.214 95.048 290.6 96.9 A 12.208 12.208 0 0 1 288.99 98.459 Q 287.045 100 285 100 A 3.095 3.095 0 0 1 284.977 100 Q 283.985 99.993 282.7 99.35 Q 281.686 98.843 280.884 97.575 A 8.911 8.911 0 0 1 280.45 96.8 Q 279.5 94.9 279.5 91.2 A 33.879 33.879 0 0 1 279.646 88.192 Q 279.969 84.597 281 79.75 Q 282.5 72.7 285.1 64.2 Q 287.7 55.7 291.1 46.75 Q 294.5 37.8 298.45 29.45 A 164.317 164.317 0 0 1 302.957 20.594 A 128.362 128.362 0 0 1 306.55 14.45 A 77.473 77.473 0 0 1 309.641 9.85 Q 312.2 6.338 314.7 3.9 Q 317.105 1.555 319.366 0.62 A 7.645 7.645 0 0 1 322.3 0 A 5.232 5.232 0 0 1 323.259 0.082 Q 324.562 0.325 325.05 1.3 A 5.951 5.951 0 0 1 325.571 2.896 Q 325.698 3.588 325.7 4.375 A 9.899 9.899 0 0 1 325.7 4.4 Q 325.7 8.267 323.799 12.781 A 33.472 33.472 0 0 1 323.35 13.8 A 51.415 51.415 0 0 1 319.807 20.195 A 63.654 63.654 0 0 1 317.1 24.05 Q 313.2 29.2 308.5 33.85 Q 303.8 38.5 299 41.8 Q 298.5 43 298.05 44.25 Q 297.6 45.5 297.1 46.8 A 2.612 2.612 0 0 1 298.828 47.919 A 3.307 3.307 0 0 1 298.85 47.95 Q 299.5 48.9 299.6 50 A 145.621 145.621 0 0 0 300.302 54.137 Q 300.687 56.22 301.1 58.05 A 18.584 18.584 0 0 0 301.785 60.402 Q 302.493 62.319 303.55 63.6 A 5.344 5.344 0 0 0 306.755 65.459 A 8.04 8.04 0 0 0 308.3 65.6 A 7.761 7.761 0 0 0 314.011 63.246 A 9.45 9.45 0 0 0 314.2 63.05 A 26.968 26.968 0 0 0 315.897 61.043 Q 316.73 59.964 317.606 58.653 A 65.38 65.38 0 0 0 319.4 55.8 Z M 160.4 42.4 L 159.4 42.4 Q 156.4 52.7 153.65 62.7 Q 150.944 72.542 148.673 80.446 A 1156.394 1156.394 0 0 1 148.6 80.7 Q 146.1 80.7 143.9 79.3 A 5.745 5.745 0 0 1 142.74 78.347 A 3.794 3.794 0 0 1 141.7 75.7 A 6.097 6.097 0 0 1 141.77 74.812 Q 141.836 74.366 141.964 73.864 A 13.531 13.531 0 0 1 142.2 73.05 Q 142.7 71.5 143.1 70.2 Q 146.3 60.4 149.1 51.9 A 945.737 945.737 0 0 1 154.613 35.65 A 871.503 871.503 0 0 1 154.7 35.4 Q 157.5 27.4 160.65 19.4 A 375.448 375.448 0 0 1 165.566 7.539 A 437.899 437.899 0 0 1 167.7 2.7 Q 163.9 3.4 160.95 4.75 A 84.359 84.359 0 0 0 159.058 5.643 Q 158.22 6.052 157.505 6.429 A 35.095 35.095 0 0 0 156.2 7.15 A 23.051 23.051 0 0 1 155.567 7.507 Q 154.573 8.046 154.057 8.166 A 1.156 1.156 0 0 1 153.8 8.2 A 1.037 1.037 0 0 1 153.547 8.165 Q 153.189 8.074 152.65 7.75 Q 151.9 7.3 151.3 6.65 A 3.635 3.635 0 0 1 151.024 6.316 Q 150.758 5.947 150.71 5.634 A 0.892 0.892 0 0 1 150.7 5.5 Q 153.3 4.4 156.85 3.1 Q 160.4 1.8 164.5 0.9 Q 168.6 0 172.8 0 A 34.651 34.651 0 0 1 180.898 0.986 A 38.946 38.946 0 0 1 181.75 1.2 Q 186.3 2.4 190.1 4.85 A 20.15 20.15 0 0 1 195.523 9.911 A 19.26 19.26 0 0 1 196.2 10.9 A 14.629 14.629 0 0 1 198.39 17.258 A 18.527 18.527 0 0 1 198.5 19.3 A 19.713 19.713 0 0 1 198.028 23.715 A 15.038 15.038 0 0 1 196.2 28.25 Q 193.9 32 190.1 34.55 Q 186.3 37.1 181.9 38.65 Q 177.5 40.2 173.15 41.05 Q 169.412 41.781 166.375 42.068 A 46.722 46.722 0 0 1 165.4 42.15 Q 162 42.4 160.4 42.4 Z M 259.6 41.8 L 259.6 40 Q 260.4 40.1 261.5 40.2 Q 262.527 40.294 263.815 40.387 A 180.465 180.465 0 0 0 264 40.4 Q 266.1 35 268.5 29.95 Q 270.9 24.9 273.25 20.95 Q 275.026 17.965 276.688 15.893 A 25.255 25.255 0 0 1 277.75 14.65 A 14.304 14.304 0 0 1 278.722 13.678 Q 280.252 12.3 281.4 12.3 A 2.174 2.174 0 0 1 282.789 12.8 A 2.751 2.751 0 0 1 282.85 12.85 A 1.752 1.752 0 0 1 283.408 13.752 Q 283.5 14.087 283.5 14.5 A 4.378 4.378 0 0 1 283.369 15.485 Q 283.013 17.001 281.693 19.503 A 43.938 43.938 0 0 1 281.4 20.05 Q 279.956 22.697 278.04 26.029 A 501.112 501.112 0 0 1 276.2 29.2 A 134.642 134.642 0 0 0 272.032 36.913 A 158.425 158.425 0 0 0 270.2 40.7 L 272.05 40.7 L 273.9 40.7 Q 277.2 40.7 280.85 40.6 Q 284.5 40.5 288.2 40.1 L 288.2 41.9 A 302.508 302.508 0 0 1 283.296 42.397 Q 280.99 42.61 278.933 42.759 A 177.381 177.381 0 0 1 278.35 42.8 Q 274 43.1 270.6 43.1 L 269.85 43.1 L 269.1 43.1 Q 266.8 48.4 265.2 54 A 41.313 41.313 0 0 0 263.741 61.727 A 36.128 36.128 0 0 0 263.6 64.9 A 22.505 22.505 0 0 0 263.692 67.012 Q 263.89 69.109 264.518 70.398 A 4.765 4.765 0 0 0 264.9 71.05 Q 266.2 72.9 269.2 72.9 A 12.647 12.647 0 0 0 274.987 71.445 Q 276.795 70.525 278.578 69.024 A 24.857 24.857 0 0 0 279.4 68.3 A 33.464 33.464 0 0 0 283.962 63.07 Q 286.241 59.874 288.2 55.8 L 289.5 56.8 Q 287.1 62.4 283.45 66.9 A 32.78 32.78 0 0 1 278.915 71.521 A 27.222 27.222 0 0 1 275.4 74 A 18.697 18.697 0 0 1 269.962 76.196 A 16.71 16.71 0 0 1 266.3 76.6 A 11.866 11.866 0 0 1 263.693 76.331 Q 261.245 75.78 259.7 74.1 A 7.904 7.904 0 0 1 258.049 71.229 Q 257.4 69.303 257.4 66.7 Q 257.4 63.519 258.263 59.265 A 69.769 69.769 0 0 1 259.05 55.85 Q 260.7 49.4 263.2 42.6 Q 262.2 42.4 261.3 42.25 Q 260.4 42.1 259.6 41.8 Z M 379.6 55.8 L 381.1 56.6 A 68.426 68.426 0 0 1 377.868 62.699 Q 375.264 67.034 372.4 70.05 Q 368.395 74.268 363.882 74.892 A 11.54 11.54 0 0 1 362.3 75 A 9.816 9.816 0 0 1 359.963 74.74 A 5.995 5.995 0 0 1 356.15 72.05 Q 354.377 69.223 354.303 65.065 A 20.503 20.503 0 0 1 354.3 64.7 Q 354.3 61.072 355.328 56.416 A 65.721 65.721 0 0 1 356.1 53.3 Q 357.9 46.7 360.85 39.4 Q 363.8 32.1 367.3 25.15 Q 370.8 18.2 374.3 12.5 A 100.995 100.995 0 0 1 376.745 8.701 Q 378.86 5.578 380.75 3.4 A 24.453 24.453 0 0 1 381.97 2.086 Q 384.069 0 385.4 0 A 1.771 1.771 0 0 1 386.698 0.565 Q 386.935 0.805 387.14 1.147 A 4.111 4.111 0 0 1 387.2 1.25 Q 387.856 2.422 388.249 4.034 A 15.61 15.61 0 0 1 388.3 4.25 Q 388.658 5.816 388.696 7.101 A 10.197 10.197 0 0 1 388.7 7.4 A 14.488 14.488 0 0 1 388.555 9.35 Q 388.277 11.383 387.468 14.065 A 50.358 50.358 0 0 1 387.35 14.45 A 65.881 65.881 0 0 1 385.958 18.448 Q 384.928 21.141 383.55 24.15 A 97.709 97.709 0 0 1 379.369 32.232 A 110.916 110.916 0 0 1 377.75 34.95 Q 374.4 40.4 370.45 45.4 A 58.862 58.862 0 0 1 365.072 51.36 A 49.717 49.717 0 0 1 362.1 54 A 66.011 66.011 0 0 0 361.265 58.45 A 59.276 59.276 0 0 0 361.15 59.25 A 37.76 37.76 0 0 0 360.838 62.564 A 31.905 31.905 0 0 0 360.8 64.1 A 22.133 22.133 0 0 0 360.887 66.136 Q 361.076 68.179 361.678 69.472 A 5.389 5.389 0 0 0 361.9 69.9 A 3.975 3.975 0 0 0 362.9 71.074 Q 363.84 71.8 365.2 71.8 Q 367.632 71.8 370.024 69.853 A 13.216 13.216 0 0 0 370.55 69.4 A 26.199 26.199 0 0 0 373.281 66.498 A 35.163 35.163 0 0 0 375.55 63.35 Q 377.9 59.7 379.6 55.8 Z M 224.9 56.1 L 226.1 57.1 A 16.442 16.442 0 0 1 224.327 60.296 A 11.378 11.378 0 0 1 220.45 63.75 Q 216.8 65.7 213.5 65.7 A 12.295 12.295 0 0 1 211.15 65.481 A 11.377 11.377 0 0 1 211 65.45 Q 209.8 65.2 208.7 64.7 Q 205.3 69.2 201.25 72.2 A 18.281 18.281 0 0 1 198.402 73.954 Q 196.652 74.808 194.951 75.077 A 9.929 9.929 0 0 1 193.4 75.2 Q 190.603 75.2 188.864 74.079 A 5.429 5.429 0 0 1 187.3 72.55 A 10.256 10.256 0 0 1 185.703 68.524 A 13.884 13.884 0 0 1 185.5 66.1 A 21.093 21.093 0 0 1 186.039 61.439 A 25.06 25.06 0 0 1 186.5 59.7 Q 187.5 56.4 189.15 53.5 A 21.34 21.34 0 0 1 190.785 51.023 A 15.684 15.684 0 0 1 192.85 48.8 A 8.699 8.699 0 0 1 194.265 47.776 Q 195.219 47.23 196.184 47.069 A 4.926 4.926 0 0 1 197 47 A 3.729 3.729 0 0 1 197.678 47.065 A 4.572 4.572 0 0 1 198.05 47.15 A 9.742 9.742 0 0 1 199.037 47.476 A 8.973 8.973 0 0 1 199.1 47.5 Q 198.364 48.154 197.395 49.711 A 28.267 28.267 0 0 0 196.95 50.45 A 33.287 33.287 0 0 0 195.6 53.04 A 43.267 43.267 0 0 0 194.6 55.35 A 52.685 52.685 0 0 0 192.797 60.632 A 48.638 48.638 0 0 0 192.75 60.8 A 25.492 25.492 0 0 0 192.308 62.638 Q 192.135 63.507 192.059 64.272 A 11.477 11.477 0 0 0 192 65.4 Q 192 68.027 192.766 69.389 A 3.449 3.449 0 0 0 193 69.75 Q 194 71.1 195.6 71.1 Q 197.516 71.1 200.099 69.226 A 19.47 19.47 0 0 0 200.6 68.85 A 29.963 29.963 0 0 0 203.653 66.107 A 40.525 40.525 0 0 0 206.3 63.1 A 14.503 14.503 0 0 1 202.745 58.729 A 17.942 17.942 0 0 1 201.95 57.05 Q 200.4 53.3 200.4 49.4 Q 200.4 46.1 201.55 43.2 A 11.86 11.86 0 0 1 203.174 40.304 A 10.183 10.183 0 0 1 204.9 38.55 A 8.031 8.031 0 0 1 209.323 36.837 A 10.336 10.336 0 0 1 210.2 36.8 A 11.903 11.903 0 0 1 212.081 36.938 Q 214.65 37.35 215.7 39 A 8.597 8.597 0 0 1 216.822 41.779 Q 217.074 42.913 217.098 44.227 A 15.237 15.237 0 0 1 217.1 44.5 A 18.954 18.954 0 0 1 216.683 48.343 Q 216.313 50.127 215.616 52.058 A 34.344 34.344 0 0 1 215.2 53.15 Q 213.3 57.9 210.4 62.3 Q 212.2 63.3 214.2 63.3 A 9.435 9.435 0 0 0 215.76 63.162 Q 216.481 63.041 217.268 62.814 A 16.91 16.91 0 0 0 217.8 62.65 A 10.905 10.905 0 0 0 220.096 61.581 A 14.477 14.477 0 0 0 221.75 60.4 A 10.529 10.529 0 0 0 223.964 57.863 A 13.687 13.687 0 0 0 224.9 56.1 Z M 355.9 56.1 L 357.1 57.1 A 16.442 16.442 0 0 1 355.327 60.296 A 11.378 11.378 0 0 1 351.45 63.75 Q 347.8 65.7 344.5 65.7 A 12.295 12.295 0 0 1 342.15 65.481 A 11.377 11.377 0 0 1 342 65.45 Q 340.8 65.2 339.7 64.7 Q 336.3 69.2 332.25 72.2 A 18.281 18.281 0 0 1 329.402 73.954 Q 327.652 74.808 325.951 75.077 A 9.929 9.929 0 0 1 324.4 75.2 Q 321.603 75.2 319.864 74.079 A 5.429 5.429 0 0 1 318.3 72.55 A 10.256 10.256 0 0 1 316.703 68.524 A 13.884 13.884 0 0 1 316.5 66.1 A 21.093 21.093 0 0 1 317.039 61.439 A 25.06 25.06 0 0 1 317.5 59.7 Q 318.5 56.4 320.15 53.5 A 21.34 21.34 0 0 1 321.785 51.023 A 15.684 15.684 0 0 1 323.85 48.8 A 8.699 8.699 0 0 1 325.265 47.776 Q 326.219 47.23 327.184 47.069 A 4.926 4.926 0 0 1 328 47 A 3.729 3.729 0 0 1 328.678 47.065 A 4.572 4.572 0 0 1 329.05 47.15 A 9.742 9.742 0 0 1 330.037 47.476 A 8.973 8.973 0 0 1 330.1 47.5 Q 329.364 48.154 328.395 49.711 A 28.267 28.267 0 0 0 327.95 50.45 A 33.287 33.287 0 0 0 326.6 53.04 A 43.267 43.267 0 0 0 325.6 55.35 A 52.685 52.685 0 0 0 323.797 60.632 A 48.638 48.638 0 0 0 323.75 60.8 A 25.492 25.492 0 0 0 323.308 62.638 Q 323.135 63.507 323.059 64.272 A 11.477 11.477 0 0 0 323 65.4 Q 323 68.027 323.766 69.389 A 3.449 3.449 0 0 0 324 69.75 Q 325 71.1 326.6 71.1 Q 328.516 71.1 331.099 69.226 A 19.47 19.47 0 0 0 331.6 68.85 A 29.963 29.963 0 0 0 334.653 66.107 A 40.525 40.525 0 0 0 337.3 63.1 A 14.503 14.503 0 0 1 333.745 58.729 A 17.942 17.942 0 0 1 332.95 57.05 Q 331.4 53.3 331.4 49.4 Q 331.4 46.1 332.55 43.2 A 11.86 11.86 0 0 1 334.174 40.304 A 10.183 10.183 0 0 1 335.9 38.55 A 8.031 8.031 0 0 1 340.323 36.837 A 10.336 10.336 0 0 1 341.2 36.8 A 11.903 11.903 0 0 1 343.081 36.938 Q 345.65 37.35 346.7 39 A 8.597 8.597 0 0 1 347.822 41.779 Q 348.074 42.913 348.098 44.227 A 15.237 15.237 0 0 1 348.1 44.5 A 18.954 18.954 0 0 1 347.683 48.343 Q 347.313 50.127 346.616 52.058 A 34.344 34.344 0 0 1 346.2 53.15 Q 344.3 57.9 341.4 62.3 Q 343.2 63.3 345.2 63.3 A 9.435 9.435 0 0 0 346.76 63.162 Q 347.481 63.041 348.268 62.814 A 16.91 16.91 0 0 0 348.8 62.65 A 10.905 10.905 0 0 0 351.096 61.581 A 14.477 14.477 0 0 0 352.75 60.4 A 10.529 10.529 0 0 0 354.964 57.863 A 13.687 13.687 0 0 0 355.9 56.1 Z M 440.1 56.1 L 441.3 57.1 A 16.442 16.442 0 0 1 439.527 60.296 A 11.378 11.378 0 0 1 435.65 63.75 Q 432 65.7 428.7 65.7 A 12.295 12.295 0 0 1 426.35 65.481 A 11.377 11.377 0 0 1 426.2 65.45 Q 425 65.2 423.9 64.7 Q 420.5 69.2 416.45 72.2 A 18.281 18.281 0 0 1 413.602 73.954 Q 411.852 74.808 410.151 75.077 A 9.929 9.929 0 0 1 408.6 75.2 Q 405.803 75.2 404.064 74.079 A 5.429 5.429 0 0 1 402.5 72.55 A 10.256 10.256 0 0 1 400.903 68.524 A 13.884 13.884 0 0 1 400.7 66.1 A 21.093 21.093 0 0 1 401.239 61.439 A 25.06 25.06 0 0 1 401.7 59.7 Q 402.7 56.4 404.35 53.5 A 21.34 21.34 0 0 1 405.985 51.023 A 15.684 15.684 0 0 1 408.05 48.8 A 8.699 8.699 0 0 1 409.465 47.776 Q 410.419 47.23 411.384 47.069 A 4.926 4.926 0 0 1 412.2 47 A 3.729 3.729 0 0 1 412.878 47.065 A 4.572 4.572 0 0 1 413.25 47.15 A 9.742 9.742 0 0 1 414.237 47.476 A 8.973 8.973 0 0 1 414.3 47.5 Q 413.564 48.154 412.595 49.711 A 28.267 28.267 0 0 0 412.15 50.45 A 33.287 33.287 0 0 0 410.8 53.04 A 43.267 43.267 0 0 0 409.8 55.35 A 52.685 52.685 0 0 0 407.997 60.632 A 48.638 48.638 0 0 0 407.95 60.8 A 25.492 25.492 0 0 0 407.508 62.638 Q 407.335 63.507 407.259 64.272 A 11.477 11.477 0 0 0 407.2 65.4 Q 407.2 68.027 407.966 69.389 A 3.449 3.449 0 0 0 408.2 69.75 Q 409.2 71.1 410.8 71.1 Q 412.716 71.1 415.299 69.226 A 19.47 19.47 0 0 0 415.8 68.85 A 29.963 29.963 0 0 0 418.853 66.107 A 40.525 40.525 0 0 0 421.5 63.1 A 14.503 14.503 0 0 1 417.945 58.729 A 17.942 17.942 0 0 1 417.15 57.05 Q 415.6 53.3 415.6 49.4 Q 415.6 46.1 416.75 43.2 A 11.86 11.86 0 0 1 418.374 40.304 A 10.183 10.183 0 0 1 420.1 38.55 A 8.031 8.031 0 0 1 424.523 36.837 A 10.336 10.336 0 0 1 425.4 36.8 A 11.903 11.903 0 0 1 427.281 36.938 Q 429.85 37.35 430.9 39 A 8.597 8.597 0 0 1 432.022 41.779 Q 432.274 42.913 432.298 44.227 A 15.237 15.237 0 0 1 432.3 44.5 A 18.954 18.954 0 0 1 431.883 48.343 Q 431.513 50.127 430.816 52.058 A 34.344 34.344 0 0 1 430.4 53.15 Q 428.5 57.9 425.6 62.3 Q 427.4 63.3 429.4 63.3 A 9.435 9.435 0 0 0 430.96 63.162 Q 431.681 63.041 432.468 62.814 A 16.91 16.91 0 0 0 433 62.65 A 10.905 10.905 0 0 0 435.296 61.581 A 14.477 14.477 0 0 0 436.95 60.4 A 10.529 10.529 0 0 0 439.164 57.863 A 13.687 13.687 0 0 0 440.1 56.1 Z M 224 61 L 223.1 59.3 Q 224.5 56.7 226.75 51.7 Q 229 46.7 231.2 40.3 A 3.27 3.27 0 0 1 230.2 37.944 A 3.89 3.89 0 0 1 230.2 37.9 A 8.649 8.649 0 0 1 230.47 35.684 A 6.425 6.425 0 0 1 231.9 33 A 16.95 16.95 0 0 1 232.553 32.307 Q 233.511 31.351 234.111 31.152 A 0.926 0.926 0 0 1 234.4 31.1 A 1.888 1.888 0 0 1 234.863 31.153 Q 235.467 31.306 235.621 31.909 A 1.55 1.55 0 0 1 235.65 32.05 Q 235.773 32.83 235.795 33.306 A 4.206 4.206 0 0 1 235.8 33.5 A 1.615 1.615 0 0 1 235.774 33.765 Q 235.696 34.224 235.385 35.085 A 23.542 23.542 0 0 1 235.25 35.45 A 35.513 35.513 0 0 0 235.063 35.954 Q 234.718 36.906 234.701 37.174 A 0.412 0.412 0 0 0 234.7 37.2 Q 234.7 38.6 236.25 39.75 Q 237.582 40.739 239.246 41.948 A 548.033 548.033 0 0 0 239.8 42.35 Q 241.8 43.8 243.35 45.85 A 7.414 7.414 0 0 1 244.654 48.733 Q 244.892 49.791 244.9 51.021 A 13.119 13.119 0 0 1 244.9 51.1 A 14.386 14.386 0 0 1 244.9 51.147 Q 244.89 54.125 243.65 57.2 Q 242.4 60.3 241.15 63.1 A 18.056 18.056 0 0 0 240.438 64.943 Q 239.9 66.622 239.9 68 Q 239.9 69.64 240.647 70.284 A 1.557 1.557 0 0 0 240.8 70.4 A 3.579 3.579 0 0 0 242.478 70.981 A 4.5 4.5 0 0 0 242.9 71 A 8.545 8.545 0 0 0 245.725 70.499 A 11.989 11.989 0 0 0 247.85 69.5 A 25.453 25.453 0 0 0 251.285 67.06 A 30.495 30.495 0 0 0 252.8 65.7 Q 255.2 63.4 257.1 60.85 Q 258.683 58.726 259.572 56.845 A 15.348 15.348 0 0 0 259.9 56.1 L 261.2 57.1 A 35.465 35.465 0 0 1 258.015 62.676 A 43.092 43.092 0 0 1 256 65.35 A 32.321 32.321 0 0 1 250.688 70.563 A 28.946 28.946 0 0 1 248.65 72 A 16.861 16.861 0 0 1 244.407 73.99 A 14.161 14.161 0 0 1 240.3 74.6 A 10.386 10.386 0 0 1 238.134 74.388 Q 236.721 74.086 235.651 73.358 A 6.075 6.075 0 0 1 234.95 72.8 A 5.973 5.973 0 0 1 233.02 68.678 A 8.153 8.153 0 0 1 233 68.1 A 14.471 14.471 0 0 1 233.494 64.432 A 19.162 19.162 0 0 1 234.4 61.8 Q 235.8 58.5 237.15 55.25 A 20.755 20.755 0 0 0 237.973 52.904 Q 238.5 51.025 238.5 49.4 Q 238.5 46.2 236.65 44.65 Q 234.8 43.1 232.9 41.8 Q 230.6 47.7 228.1 53 A 194.074 194.074 0 0 1 226.906 55.488 Q 225.6 58.158 224.59 59.971 A 44.419 44.419 0 0 1 224 61 Z M 403.6 55.8 L 404.5 56.8 Q 401.873 64.592 397.152 69.1 A 21.944 21.944 0 0 1 396.15 70 A 21.835 21.835 0 0 1 391.824 72.892 A 15.582 15.582 0 0 1 384.8 74.6 Q 381.654 74.6 379.81 73.006 A 5.932 5.932 0 0 1 379 72.15 A 9.016 9.016 0 0 1 377.181 67.605 A 11.798 11.798 0 0 1 377.1 66.2 Q 377.1 64.655 377.484 62.568 A 39.423 39.423 0 0 1 377.95 60.4 A 64.863 64.863 0 0 1 379.227 55.889 A 78.669 78.669 0 0 1 380.2 53.05 A 53.414 53.414 0 0 1 383.221 46.227 A 49.306 49.306 0 0 1 383.45 45.8 A 31.029 31.029 0 0 1 385.117 43.065 Q 386.012 41.761 386.96 40.718 A 17.836 17.836 0 0 1 387.4 40.25 Q 388.701 38.918 389.964 38.412 A 4.102 4.102 0 0 1 391.5 38.1 A 2.459 2.459 0 0 1 392.41 38.265 A 2.282 2.282 0 0 1 393.05 38.65 A 1.752 1.752 0 0 1 393.608 39.552 Q 393.7 39.887 393.7 40.3 Q 393.7 41.413 392.367 43.817 A 30.151 30.151 0 0 1 392.15 44.2 Q 390.818 46.521 389.08 49.432 A 527.778 527.778 0 0 1 388.5 50.4 Q 386.4 53.9 384.85 57.75 Q 383.3 61.6 383.3 65.1 A 16.948 16.948 0 0 0 383.366 66.656 Q 383.581 68.982 384.5 69.9 A 3.696 3.696 0 0 0 385.911 70.762 Q 386.496 70.968 387.218 71.049 A 8.857 8.857 0 0 0 388.2 71.1 A 7.976 7.976 0 0 0 391.247 70.455 Q 392.421 69.972 393.642 69.127 A 19.563 19.563 0 0 0 395.45 67.7 A 20.815 20.815 0 0 0 397.869 65.116 Q 400.627 61.677 403.6 55.8 Z M 159.8 40.8 A 54.76 54.76 0 0 0 170.244 39.183 A 60.511 60.511 0 0 0 170.95 39 A 39.65 39.65 0 0 0 180.261 35.258 A 36.83 36.83 0 0 0 181.3 34.65 A 24.857 24.857 0 0 0 187.442 29.466 A 23.147 23.147 0 0 0 188.9 27.55 A 16.696 16.696 0 0 0 191.714 19.52 A 21.039 21.039 0 0 0 191.8 17.6 Q 191.8 12.833 189.813 9.625 A 11.221 11.221 0 0 0 189.25 8.8 Q 186.7 5.4 182.55 3.75 Q 178.4 2.1 173.7 2.1 A 109.319 109.319 0 0 0 170.501 9.043 Q 168.977 12.658 167.488 16.789 A 195.163 195.163 0 0 0 166.5 19.6 A 466.198 466.198 0 0 0 160.201 39.428 A 510.223 510.223 0 0 0 159.8 40.8 Z M 363 50.6 A 62.647 62.647 0 0 0 367.508 45.554 A 75.912 75.912 0 0 0 369.8 42.55 Q 373.1 38 375.95 33.1 Q 378.8 28.2 381 23.6 Q 383.2 19 384.4 15.35 Q 385.398 12.315 385.566 10.421 A 8.177 8.177 0 0 0 385.6 9.7 A 6.299 6.299 0 0 0 385.588 9.296 Q 385.549 8.691 385.382 8.443 A 0.526 0.526 0 0 0 385.35 8.4 A 1.556 1.556 0 0 0 385.236 8.276 Q 385.108 8.153 384.994 8.116 A 0.304 0.304 0 0 0 384.9 8.1 A 0.927 0.927 0 0 0 384.464 8.239 Q 383.645 8.696 382.15 10.65 A 49.537 49.537 0 0 0 380.733 12.61 Q 379.306 14.678 377.6 17.5 Q 375 21.8 372.3 27.3 A 183.076 183.076 0 0 0 367.303 38.426 A 199.301 199.301 0 0 0 367.15 38.8 A 123.762 123.762 0 0 0 363.465 49.056 A 111.599 111.599 0 0 0 363 50.6 Z M 287.6 95.2 A 1.565 1.565 0 0 0 288.345 94.99 Q 288.914 94.682 289.551 93.922 A 10.505 10.505 0 0 0 290.1 93.2 A 19.692 19.692 0 0 0 291.143 91.525 Q 291.656 90.608 292.161 89.52 A 41.575 41.575 0 0 0 292.85 87.95 A 58.869 58.869 0 0 0 294.421 83.691 A 72.72 72.72 0 0 0 295.3 80.8 Q 296.4 76.9 297.1 73 A 49.167 49.167 0 0 0 297.579 69.741 Q 297.758 68.119 297.792 66.663 A 28.598 28.598 0 0 0 297.8 66 A 20.827 20.827 0 0 0 297.55 62.709 A 16.666 16.666 0 0 0 297 60.35 Q 296.403 58.448 295.25 56.016 A 59.885 59.885 0 0 0 294.4 54.3 A 360.834 360.834 0 0 0 290.931 65.269 A 318.62 318.62 0 0 0 289.9 68.8 Q 288.181 74.816 287.127 79.798 A 112.41 112.41 0 0 0 286.8 81.4 A 81.23 81.23 0 0 0 286.22 84.685 Q 285.735 87.839 285.702 90.085 A 21.964 21.964 0 0 0 285.7 90.4 A 18.528 18.528 0 0 0 285.756 91.909 Q 285.956 94.346 286.871 94.978 A 1.251 1.251 0 0 0 287.6 95.2 Z M 300.6 37.7 A 112.752 112.752 0 0 0 307.702 30.558 A 91.4 91.4 0 0 0 311.85 25.65 A 111.608 111.608 0 0 0 315.11 21.296 Q 317.575 17.819 319.2 14.85 A 48.462 48.462 0 0 0 320.213 12.904 Q 321.661 9.947 321.788 8.387 A 3.542 3.542 0 0 0 321.8 8.1 A 2.015 2.015 0 0 0 321.731 7.546 Q 321.553 6.925 320.918 6.76 A 2.063 2.063 0 0 0 320.4 6.7 A 4.06 4.06 0 0 0 318.574 7.18 Q 316.691 8.128 314.5 10.95 Q 312.038 14.121 309.409 18.823 A 110.073 110.073 0 0 0 307.6 22.2 Q 304 29.2 300.6 37.7 Z M 82.904 93.87 A 42.478 42.478 0 0 0 83.85 92.85 A 22.257 22.257 0 0 0 85.882 90.158 Q 88.525 86.116 91.4 79 A 161.342 161.342 0 0 0 86.509 81.731 A 133.705 133.705 0 0 0 83.8 83.35 A 27.717 27.717 0 0 0 80.916 85.371 Q 79.348 86.633 78.2 88 Q 76.1 90.5 76.1 93.8 Q 76.1 94.366 76.4 95.082 A 6.733 6.733 0 0 0 76.7 95.7 A 2.015 2.015 0 0 0 78.167 96.744 A 3.356 3.356 0 0 0 78.8 96.8 Q 80.092 96.8 82.904 93.87 Z M 208.1 60.5 Q 210.6 56.8 212.25 52.75 A 23.947 23.947 0 0 0 213.434 49.052 A 17.735 17.735 0 0 0 213.9 45.1 Q 213.9 42.555 213.245 41.204 A 3.65 3.65 0 0 0 213.05 40.85 A 3.631 3.631 0 0 0 212.506 40.168 A 2.242 2.242 0 0 0 210.9 39.5 Q 208.9 39.5 206.8 42.4 A 10.731 10.731 0 0 0 205.02 46.492 A 15.248 15.248 0 0 0 204.7 49.7 A 20.988 20.988 0 0 0 205.498 55.366 A 23.378 23.378 0 0 0 205.55 55.55 Q 206.4 58.5 208.1 60.5 Z M 339.1 60.5 Q 341.6 56.8 343.25 52.75 A 23.947 23.947 0 0 0 344.434 49.052 A 17.735 17.735 0 0 0 344.9 45.1 Q 344.9 42.555 344.245 41.204 A 3.65 3.65 0 0 0 344.05 40.85 A 3.631 3.631 0 0 0 343.506 40.168 A 2.242 2.242 0 0 0 341.9 39.5 Q 339.9 39.5 337.8 42.4 A 10.731 10.731 0 0 0 336.02 46.492 A 15.248 15.248 0 0 0 335.7 49.7 A 20.988 20.988 0 0 0 336.498 55.366 A 23.378 23.378 0 0 0 336.55 55.55 Q 337.4 58.5 339.1 60.5 Z M 423.3 60.5 Q 425.8 56.8 427.45 52.75 A 23.947 23.947 0 0 0 428.634 49.052 A 17.735 17.735 0 0 0 429.1 45.1 Q 429.1 42.555 428.445 41.204 A 3.65 3.65 0 0 0 428.25 40.85 A 3.631 3.631 0 0 0 427.706 40.168 A 2.242 2.242 0 0 0 426.1 39.5 Q 424.1 39.5 422 42.4 A 10.731 10.731 0 0 0 420.22 46.492 A 15.248 15.248 0 0 0 419.9 49.7 A 20.988 20.988 0 0 0 420.698 55.366 A 23.378 23.378 0 0 0 420.75 55.55 Q 421.6 58.5 423.3 60.5 Z M 394.991 28.507 A 5.454 5.454 0 0 0 396.8 28.8 A 6.275 6.275 0 0 0 399.338 28.269 A 7.696 7.696 0 0 0 401.25 27.05 Q 402.243 26.203 402.755 25.32 A 3.784 3.784 0 0 0 403.3 23.4 A 5.35 5.35 0 0 0 403.262 22.741 Q 403.114 21.556 402.4 21 A 2.889 2.889 0 0 0 402.013 20.747 Q 401.198 20.3 400 20.3 Q 397.6 20.3 395.15 21.85 Q 394.155 22.48 393.564 23.2 A 3.549 3.549 0 0 0 392.7 25.5 A 4.027 4.027 0 0 0 392.74 26.082 A 2.614 2.614 0 0 0 393.95 28 A 4.951 4.951 0 0 0 394.991 28.507 Z" vector-effect="non-scaling-stroke"/></g></svg>