<?xml version="1.0" encoding="utf-8"?>
<svg viewBox="-643.886 87.8678 1173.5519 193.7367" xmlns="http://www.w3.org/2000/svg">
  <g>
    <path opacity="1.000000" stroke="none" d="M -643.886 171.803 C -643.886 145.371 -643.886 119.278 -643.886 92.809 C -642.633 92.809 -641.535 92.809 -640.437 92.809 C -630.268 92.809 -620.098 92.934 -609.934 92.727 C -607.175 92.671 -605.986 93.678 -604.952 96.032 C -600.262 106.709 -595.413 117.316 -590.605 127.941 C -582.695 145.421 -574.768 162.894 -566.859 180.375 C -565.152 184.147 -563.49 187.939 -561.567 192.263 C -558.774 186.137 -556.148 180.43 -553.566 174.702 C -547.704 161.696 -541.877 148.674 -536.013 135.667 C -530.011 122.354 -523.929 109.075 -518.022 95.72 C -517.067 93.56 -516.01 92.71 -513.565 92.744 C -502.612 92.894 -491.656 92.809 -480.424 92.809 C -480.424 140.435 -480.424 187.921 -480.424 235.644 C -490.117 235.644 -499.866 235.644 -510.024 235.644 C -510.024 205.52 -510.024 175.471 -510.024 145.422 C -510.271 145.371 -510.518 145.32 -510.766 145.269 C -514.235 152.864 -517.702 160.46 -521.174 168.053 C -529.07 185.322 -536.974 202.587 -544.862 219.86 C -546.868 224.252 -548.892 228.638 -550.769 233.086 C -551.603 235.061 -552.605 236.065 -554.994 235.951 C -559.84 235.718 -564.71 235.771 -569.563 235.936 C -571.463 236.002 -572.428 235.328 -573.169 233.698 C -578.467 222.051 -583.834 210.437 -589.143 198.796 C -595.753 184.301 -602.325 169.789 -608.92 155.287 C -610.396 152.042 -611.899 148.808 -613.867 145.643 C -613.867 175.562 -613.867 205.481 -613.867 235.64 C -623.93 235.64 -633.686 235.64 -643.886 235.64 C -643.886 214.507 -643.886 193.324 -643.886 171.803 Z" style="fill: rgb(255, 255, 255);"/>
  </g>
  <path opacity="1.000000" stroke="none" d="M -255.065 216.548 C -255.065 223.078 -255.065 229.271 -255.065 235.671 C -265.338 235.671 -275.339 235.671 -285.58 235.671 C -285.58 188.229 -285.58 140.741 -285.58 93.124 C -285.068 93.024 -284.529 92.824 -283.99 92.827 C -265.919 92.925 -247.835 92.666 -229.782 93.294 C -218.2 93.698 -207.396 97.46 -198.633 105.461 C -188.746 114.489 -184.583 126.019 -184.682 139.279 C -184.777 152.025 -188.758 163.212 -198.105 172.05 C -206.537 180.023 -217.046 183.728 -228.38 184.522 C -237.116 185.134 -245.93 184.644 -255.065 184.644 C -255.065 195.735 -255.065 205.972 -255.065 216.548 M -255.067 145.024 C -255.067 149.261 -255.067 153.499 -255.067 157.67 C -247.21 157.67 -239.877 157.898 -232.567 157.585 C -228.132 157.395 -224.02 155.601 -220.819 152.389 C -215.133 146.687 -214.318 139.807 -216.691 132.448 C -219.094 124.994 -225.139 121.553 -232.224 120.826 C -239.685 120.059 -247.287 120.653 -255.067 120.653 C -255.067 128.571 -255.067 136.458 -255.067 145.024 Z" style="fill: rgb(255, 255, 255);"/>
  <path opacity="1.000000" stroke="none" d="M -427.415 223.063 C -433.195 208.789 -438.858 194.75 -444.535 180.717 C -450.463 166.065 -456.408 151.419 -462.335 136.767 C -462.534 136.275 -462.627 135.738 -462.873 134.843 C -452.777 134.843 -442.991 134.777 -433.21 134.954 C -432.317 134.97 -431.038 136.382 -430.642 137.416 C -427.482 145.671 -424.514 154 -421.446 162.29 C -416.823 174.783 -412.171 187.266 -407.518 199.748 C -407.258 200.447 -406.871 201.098 -406.359 202.152 C -400.735 187.257 -395.27 172.801 -389.818 158.34 C -387.118 151.182 -384.484 143.998 -381.695 136.875 C -381.367 136.037 -380.244 134.942 -379.477 134.932 C -369.922 134.799 -360.364 134.845 -350.301 134.845 C -353.042 141.5 -355.599 147.693 -358.146 153.891 C -368.907 180.075 -379.626 206.276 -390.443 232.436 C -394.939 243.31 -398.893 254.444 -405.823 264.164 C -416.548 279.209 -433.821 285.067 -451.377 279.586 C -454.214 278.699 -455.514 277.407 -455.387 274.188 C -455.116 267.311 -455.304 260.417 -455.304 253.321 C -452.893 253.92 -450.668 254.621 -448.392 255.013 C -437.034 256.965 -429.444 251.908 -424.465 241.515 C -420.935 234.146 -425.488 229.202 -427.415 223.063 Z" style="fill: rgb(255, 255, 255);"/>
  <path opacity="1.000000" stroke="none" d="M -176.782 180.014 C -173.899 152.87 -151.841 132.957 -124.545 132.332 C -110.138 132.003 -97.163 135.776 -86.123 145.179 C -73.132 156.244 -67.125 170.537 -67.655 187.497 C -68.588 217.3 -93.66 239.545 -124.771 238.351 C -150.016 237.383 -169.943 221.546 -175.555 197.388 C -176.83 191.899 -176.423 186.02 -176.782 180.014 M -99.63 173.817 C -103.844 166.047 -110.111 160.888 -118.989 159.778 C -129.747 158.434 -138.328 162.625 -143.824 171.876 C -149.395 181.252 -149.093 190.976 -142.975 200.108 C -133.613 214.081 -113.632 215.036 -103.181 202.08 C -96.365 193.631 -95.425 184.272 -99.63 173.817 Z" style="fill: rgb(255, 255, 255);"/>
  <path opacity="1.000000" stroke="none" d="M 492.114 235.947 C 471.94 241.257 453.57 238.352 437.798 224.687 C 425.106 213.689 419.744 199.27 420.379 182.539 C 421.425 155.022 444.411 133.027 472.661 132.33 C 487.843 131.955 501.412 136.12 512.646 146.421 C 525.91 158.581 531.17 173.957 529.3 191.762 C 528.087 203.308 523.335 213.305 515.341 221.709 C 508.943 228.434 501.245 233.119 492.114 235.947 M 497.643 173.812 C 495.717 171.233 494.179 168.208 491.803 166.148 C 476.968 153.282 455.676 159.945 450.507 178.916 C 446.468 193.743 457.431 209.8 472.445 211.045 C 492.329 212.695 505.779 193.222 497.643 173.812 Z" style="fill: rgb(255, 255, 255);"/>
  <path opacity="1.000000" stroke="none" d="M 209.059 230.074 C 192.11 218.624 183.999 202.838 184.59 182.665 C 185.262 159.727 201.567 139.664 224.771 134.095 C 244.366 129.391 262.493 133.046 277.519 146.974 C 290.914 159.391 295.896 175.264 293.284 193.228 C 290.558 211.978 280.271 225.588 263.038 233.324 C 246.034 240.957 228.932 240.247 212.235 231.806 C 211.233 231.3 210.258 230.739 209.059 230.074 M 217.912 199.047 C 222.119 205.86 228.185 210.06 236.112 210.952 C 246.867 212.163 255.411 207.92 260.818 198.64 C 266.303 189.228 265.962 179.537 259.751 170.42 C 251.465 158.259 235.29 155.906 223.768 165.025 C 213.652 173.032 211.177 186.46 217.912 199.047 Z" style="fill: rgb(255, 255, 255);"/>
  <path opacity="1.000000" stroke="none" d="M 162.943 114.626 C 154.533 117.829 151.481 123.794 152.662 134.731 C 161.131 134.731 169.649 134.731 178.375 134.731 C 178.375 143.047 178.375 151.012 178.375 159.388 C 169.874 159.388 161.267 159.388 152.37 159.388 C 152.37 185.029 152.37 210.262 152.37 235.688 C 142.427 235.688 132.78 235.688 122.894 235.688 C 122.894 210.33 122.894 185.082 122.894 159.562 C 118.096 159.562 113.524 159.562 108.741 159.562 C 108.741 151.239 108.741 143.187 108.741 134.892 C 113.389 134.892 117.982 134.892 122.466 134.892 C 122.915 129.504 122.933 124.293 123.845 119.243 C 127.487 99.052 142.189 88.424 161.523 87.88 C 167.248 87.719 173.035 89.186 178.754 90.14 C 179.567 90.275 180.746 91.723 180.764 92.583 C 180.92 100.337 180.855 108.094 180.855 116.192 C 174.93 113.578 169.152 112.917 162.943 114.626 Z" style="fill: rgb(255, 255, 255);"/>
  <path opacity="1.000000" stroke="none" d="M 96.441 153.461 C 96.441 155.579 96.441 157.364 96.441 159.385 C 87.878 159.385 79.56 159.385 71.419 159.385 C 71.105 159.799 70.853 159.977 70.853 160.155 C 70.887 172.347 71.139 184.543 70.943 196.731 C 70.704 211.528 82.336 212.822 91.612 210.586 C 93.117 210.223 94.54 209.521 96.241 208.886 C 96.241 217.371 96.241 225.653 96.241 233.996 C 85.695 239.731 61.694 241.427 50.006 228.467 C 43.925 221.725 41.529 213.696 41.443 204.893 C 41.308 191.003 41.407 177.109 41.407 163.217 C 41.407 162.104 41.407 160.993 41.407 159.635 C 36.605 159.635 32.021 159.635 27.189 159.635 C 27.189 151.339 27.189 143.295 27.189 134.97 C 31.811 134.97 36.399 134.97 41.247 134.97 C 41.247 125.038 41.247 115.379 41.247 105.484 C 51.14 105.484 60.776 105.484 70.748 105.484 C 70.748 115.081 70.748 124.727 70.748 134.696 C 79.373 134.696 87.675 134.696 96.441 134.696 C 96.441 141.051 96.441 147.089 96.441 153.461 Z" style="fill: rgb(255, 255, 255);"/>
  <path opacity="1.000000" stroke="none" d="M 343.995 158.922 C 343.995 184.667 343.995 210.073 343.995 235.623 C 334.001 235.623 324.214 235.623 314.295 235.623 C 314.295 188.078 314.295 140.667 314.295 93.024 C 324.037 93.024 333.798 93.024 343.995 93.024 C 343.995 114.864 343.995 136.723 343.995 158.922 Z" style="fill: rgb(255, 255, 255);"/>
  <path opacity="1.000000" stroke="none" d="M -17.782 206.379 C -17.782 216.298 -17.782 225.878 -17.782 235.669 C -27.701 235.669 -37.35 235.669 -47.145 235.669 C -47.145 202.106 -47.145 168.616 -47.145 134.997 C -37.441 134.997 -27.885 134.997 -18.1 134.997 C -18.1 140.178 -18.1 145.211 -18.1 150.245 C -14.214 144.449 -9.884 139.371 -3.619 136.191 C 2.602 133.032 9.075 132.008 15.933 133.154 C 15.933 143.397 15.933 153.399 15.933 163.506 C 8.769 162.269 2.028 162.389 -4.412 166.038 C -10.859 169.691 -14.765 175.394 -15.982 182.224 C -17.372 190.022 -17.248 198.089 -17.782 206.379 Z" style="fill: rgb(255, 255, 255);"/>
  <path opacity="1.000000" stroke="none" d="M 370.211 202.31 C 370.211 179.727 370.211 157.483 370.211 135.041 C 380.157 135.041 389.919 135.041 399.866 135.041 C 399.866 168.588 399.866 201.977 399.866 235.625 C 390.2 235.625 380.452 235.625 370.211 235.625 C 370.211 224.67 370.211 213.66 370.211 202.31 Z" style="fill: rgb(255, 255, 255);"/>
  <path opacity="1.000000" stroke="none" d="M 367.894 107.155 C 367.422 98.239 372.741 90.914 380.973 88.798 C 388.526 86.857 397.306 91.01 400.714 98.136 C 404.311 105.654 402.116 115.047 395.13 119.796 C 383.075 127.99 369.049 119.606 367.894 107.155 Z" style="fill: rgb(255, 255, 255);"/>
</svg>